<svg width="28" height="28" viewBox="0 0 28 28" fill="none" xmlns="http://www.w3.org/2000/svg">
<path fill-rule="evenodd" clip-rule="evenodd" d="M14 0C6.26618 0 0 6.27073 0 13.9975C0 21.3423 5.66646 27.371 12.8644 27.9495V28H14C21.7338 28 28 21.7293 28 14.0025C28 6.27637 21.7344 0 14 0ZM17.0935 25.3169C16.2152 25.5565 15.2958 25.6965 14.3482 25.7241H14C12.4198 25.7241 10.9123 25.4111 9.53605 24.8438C10.8685 20.0427 14.4807 16.6037 18.6152 15.0671C19.3287 18.525 18.8108 22.2305 17.0935 25.3169ZM17.9857 12.88C13.2669 14.5797 9.14566 18.4081 7.48973 23.7513C4.34395 21.6473 2.27121 18.0628 2.27121 13.9975C2.27121 12.5558 2.5316 11.1747 3.00796 9.89861C4.42787 10.6061 5.94617 11.1065 7.50754 11.3848C9.4965 11.7495 11.5343 11.7374 13.5175 11.3798C14.6464 11.176 15.7484 10.8514 16.8051 10.4188C17.2754 11.2007 17.671 12.0247 17.9857 12.88ZM20.8044 14.442C21.4862 17.5895 21.2795 20.925 20.1912 23.9638C23.4199 21.9531 25.5997 18.4171 25.7233 14.3662C24.1182 14.0752 22.4452 14.1108 20.8044 14.442ZM25.5654 12.0414C23.788 11.7917 21.9601 11.8729 20.1746 12.2543C19.8229 11.2677 19.379 10.3173 18.8502 9.41489C20.3172 8.56765 21.6568 7.50129 22.8084 6.25788C24.2169 7.8593 25.1959 9.84742 25.5654 12.0414ZM7.90881 9.14974C6.55242 8.90826 5.23495 8.47292 4.00548 7.85848C5.06288 6.14147 6.55052 4.71729 8.3183 3.7365L8.33192 3.74078L8.33243 3.74094L8.33249 3.74096L8.33252 3.74097C8.5251 3.80158 8.70896 3.85944 8.88601 3.92299C8.95133 3.94794 9.01529 3.97219 9.07781 3.99589L9.07879 3.99626L9.07885 3.99628L9.07888 3.99629C9.36597 4.10514 9.62232 4.20234 9.83648 4.30163L9.8976 4.33218L9.91217 4.33895C10.0474 4.40185 10.2423 4.49473 10.4179 4.57846C10.5112 4.623 10.5991 4.66492 10.6698 4.69834L10.6724 4.69978C10.7315 4.7315 10.7811 4.75815 10.8273 4.78571C10.865 4.81012 10.8986 4.8299 10.9166 4.84044C10.9495 4.85973 10.9834 4.87881 11.0113 4.89434C11.0351 4.9076 11.0585 4.9205 11.0761 4.93013L11.0849 4.93498L11.1036 4.94531L11.106 4.94667C11.132 4.96167 11.1636 4.9797 11.1996 5.00026C11.2768 5.04431 11.3744 5.10001 11.4816 5.16275C11.5572 5.20702 11.6279 5.24924 11.6855 5.28498C11.7284 5.31161 11.7517 5.32706 11.7606 5.33294L11.7611 5.33328C11.7647 5.33571 11.7656 5.33627 11.7641 5.33515L11.8139 5.37288L11.8692 5.40573C11.9535 5.45579 12.0367 5.5133 12.1404 5.58507L12.1404 5.58509L12.1404 5.58511L12.1409 5.58541C12.1882 5.61818 12.2399 5.65393 12.2979 5.6933L12.3373 5.72003L12.3708 5.73893C12.3708 5.73899 12.3724 5.74005 12.3757 5.7423C12.3847 5.74837 12.4066 5.76311 12.4447 5.79043C12.5034 5.83243 12.5742 5.88515 12.6522 5.94377L12.7445 6.01333C12.792 6.04916 12.8401 6.08548 12.881 6.1161C12.9351 6.15657 13.0013 6.2057 13.061 6.24709C13.9325 6.9136 14.7291 7.67465 15.4382 8.51351C14.6837 8.78959 13.906 9.00214 13.1142 9.14511C11.3881 9.4563 9.62499 9.4647 7.91476 9.15084L7.91179 9.15027L7.90881 9.14974ZM14 2.2708C16.6921 2.2708 19.1722 3.17877 21.1515 4.70467C20.1138 5.82744 18.8985 6.78365 17.5679 7.53195C16.653 6.36915 15.5946 5.32224 14.4145 4.42333L14.386 4.40163L14.3564 4.3819L14.3484 4.3763C14.3421 4.37185 14.3337 4.36584 14.3229 4.35802C14.3011 4.34219 14.2741 4.32221 14.2418 4.29796C14.205 4.27049 14.1682 4.24269 14.1286 4.21284L14.1285 4.21278L14.1204 4.20666C14.0884 4.18243 14.0544 4.1568 14.0172 4.12887C13.9368 4.0684 13.8486 4.00263 13.7676 3.94458C13.711 3.904 13.6296 3.84661 13.5465 3.796L13.4938 3.75953L13.4935 3.75932L13.4934 3.75931C13.3853 3.68443 13.2232 3.5721 13.0756 3.48149C12.9377 3.38485 12.7515 3.27476 12.6294 3.20328C12.5112 3.13408 12.384 3.06145 12.3049 3.01636L12.3043 3.01601L12.2445 2.98179C12.2296 2.97312 12.2168 2.96596 12.2118 2.96316L12.2111 2.96277L12.1804 2.94581L12.17 2.94009C12.1524 2.93039 12.1348 2.92068 12.1164 2.91047C12.0954 2.89879 12.0784 2.88916 12.0661 2.88195L12.0575 2.87598L12.0274 2.85756C11.9183 2.79092 11.8047 2.73005 11.743 2.69701L11.7417 2.69631L11.7202 2.68479L11.6938 2.67059L11.6667 2.6578C11.6125 2.63222 11.5324 2.59406 11.4415 2.5507C12.265 2.36745 13.1212 2.2708 14 2.2708Z" fill="#151412"/>
</svg>
