<svg width="80" height="80" viewBox="0 0 80 80" fill="none" xmlns="http://www.w3.org/2000/svg">
<path d="M3.90488e-07 40.0007C1.26909e-06 60.1007 40 40.0007 40 40.0007C40 40.0007 -4.8811e-07 19.9007 3.90488e-07 40.0007Z" fill="#F25F4C"/>
<path d="M80 40.0007C80 60.1007 40 40.0007 40 40.0007C40 40.0007 80 19.9007 80 40.0007Z" fill="#F25F4C"/>
<path d="M20.0002 74.6395C37.4073 84.6895 40.0002 39.9985 40.0002 39.9985C40.0002 39.9985 2.59305 64.5895 20.0002 74.6395Z" fill="#F25F4C"/>
<path d="M60.0002 5.35924C77.4073 15.4092 40.0002 40.0002 40.0002 40.0002C40.0002 40.0002 42.5931 -4.69075 60.0002 5.35924Z" fill="#F25F4C"/>
<path d="M59.9998 74.6395C42.5927 84.6895 39.9998 39.9985 39.9998 39.9985C39.9998 39.9985 77.4069 64.5895 59.9998 74.6395Z" fill="#F25F4C"/>
<path d="M19.9998 5.35924C2.59273 15.4092 39.9998 40.0002 39.9998 40.0002C39.9998 40.0002 37.4069 -4.69075 19.9998 5.35924Z" fill="#F25F4C"/>
</svg>
