<svg width="65" height="29" viewBox="0 0 65 29" fill="none" xmlns="http://www.w3.org/2000/svg">
<path fill-rule="evenodd" clip-rule="evenodd" d="M0 14.25C0 6.37994 6.4505 0 14.4076 0H50.5924C58.5495 0 65 6.37994 65 14.25C65 22.1201 58.5495 28.5 50.5924 28.5H14.4076C6.4505 28.5 0 22.1201 0 14.25ZM14.4076 8.65845C11.2853 8.65845 8.75421 11.1619 8.75421 14.25C8.75421 17.3381 11.2853 19.8416 14.4076 19.8416H50.5924C53.7147 19.8416 56.2458 17.3381 56.2458 14.25C56.2458 11.1619 53.7147 8.65845 50.5924 8.65845H14.4076Z" fill="#FF8906"/>
<path d="M22.64 1.6201V7.2041H21.52V3.5721L20.024 7.2041H19.176L17.672 3.5721V7.2041H16.552V1.6201H17.824L19.6 5.7721L21.376 1.6201H22.64ZM27.1713 6.1401H24.9473L24.5793 7.2041H23.4033L25.4113 1.6121H26.7153L28.7233 7.2041H27.5393L27.1713 6.1401ZM26.8673 5.2441L26.0593 2.9081L25.2513 5.2441H26.8673ZM32.6259 7.2041L30.5939 4.7161V7.2041H29.4739V1.6201H30.5939V4.1241L32.6259 1.6201H33.9779L31.6739 4.3881L34.0419 7.2041H32.6259ZM35.8986 2.5241V3.9241H37.7786V4.8121H35.8986V6.2921H38.0186V7.2041H34.7786V1.6121H38.0186V2.5241H35.8986ZM42.0626 1.6201V7.2041H40.9426V1.6201H42.0626ZM46.9692 1.6201V2.5241H45.4812V7.2041H44.3612V2.5241H42.8732V1.6201H46.9692Z" fill="black"/>
<path d="M28.624 23.2085C28.624 23.5071 28.552 23.7871 28.408 24.0485C28.2693 24.3098 28.048 24.5205 27.744 24.6805C27.4453 24.8405 27.0667 24.9205 26.608 24.9205H25.672V27.0645H24.552V21.4805H26.608C27.04 21.4805 27.408 21.5551 27.712 21.7045C28.016 21.8538 28.2427 22.0591 28.392 22.3205C28.5467 22.5818 28.624 22.8778 28.624 23.2085ZM26.56 24.0165C26.8693 24.0165 27.0987 23.9471 27.248 23.8085C27.3973 23.6645 27.472 23.4645 27.472 23.2085C27.472 22.6645 27.168 22.3925 26.56 22.3925H25.672V24.0165H26.56ZM32.0112 27.1205C31.4885 27.1205 31.0085 26.9978 30.5712 26.7525C30.1339 26.5071 29.7872 26.1685 29.5312 25.7365C29.2752 25.2991 29.1472 24.8058 29.1472 24.2565C29.1472 23.7125 29.2752 23.2245 29.5312 22.7925C29.7872 22.3551 30.1339 22.0138 30.5712 21.7685C31.0085 21.5231 31.4885 21.4005 32.0112 21.4005C32.5392 21.4005 33.0192 21.5231 33.4512 21.7685C33.8885 22.0138 34.2325 22.3551 34.4832 22.7925C34.7392 23.2245 34.8672 23.7125 34.8672 24.2565C34.8672 24.8058 34.7392 25.2991 34.4832 25.7365C34.2325 26.1685 33.8885 26.5071 33.4512 26.7525C33.0139 26.9978 32.5339 27.1205 32.0112 27.1205ZM32.0112 26.1205C32.3472 26.1205 32.6432 26.0458 32.8992 25.8965C33.1552 25.7418 33.3552 25.5231 33.4992 25.2405C33.6432 24.9578 33.7152 24.6298 33.7152 24.2565C33.7152 23.8831 33.6432 23.5578 33.4992 23.2805C33.3552 22.9978 33.1552 22.7818 32.8992 22.6325C32.6432 22.4831 32.3472 22.4085 32.0112 22.4085C31.6752 22.4085 31.3765 22.4831 31.1152 22.6325C30.8592 22.7818 30.6592 22.9978 30.5152 23.2805C30.3712 23.5578 30.2992 23.8831 30.2992 24.2565C30.2992 24.6298 30.3712 24.9578 30.5152 25.2405C30.6592 25.5231 30.8592 25.7418 31.1152 25.8965C31.3765 26.0458 31.6752 26.1205 32.0112 26.1205ZM39.7724 23.2085C39.7724 23.5071 39.7004 23.7871 39.5564 24.0485C39.4178 24.3098 39.1964 24.5205 38.8924 24.6805C38.5938 24.8405 38.2151 24.9205 37.7564 24.9205H36.8204V27.0645H35.7004V21.4805H37.7564C38.1884 21.4805 38.5564 21.5551 38.8604 21.7045C39.1644 21.8538 39.3911 22.0591 39.5404 22.3205C39.6951 22.5818 39.7724 22.8778 39.7724 23.2085ZM37.7084 24.0165C38.0178 24.0165 38.2471 23.9471 38.3964 23.8085C38.5458 23.6645 38.6204 23.4645 38.6204 23.2085C38.6204 22.6645 38.3164 22.3925 37.7084 22.3925H36.8204V24.0165H37.7084Z" fill="black"/>
</svg>
